<svg xmlns="http://www.w3.org/2000/svg" viewBox="0 0 322.8 120.45"><defs><style>.cls-1{fill:none;}.cls-2{fill:#1d1d1b;}</style></defs><g id="Calque_2" data-name="Calque 2"><g id="Calque_1-2" data-name="Calque 1"><rect class="cls-1" width="322.8" height="120.45"/><path class="cls-2" d="M11.05,92.62c-.65-1.3.65-5.2,2.21-5.33,4.94-.65,6.5-5.2,9.62-7.93,2.6-2.34,4.55-5.46,6.89-8.19,1.3-1.56,1.17-3-.39-4.16-3.12-2.21-6.24-4.55-9.49-6.63A37.73,37.73,0,0,1,7.28,47,19.55,19.55,0,0,1,7,29.18a12.45,12.45,0,0,1,2.6-3.25C15.73,20.73,22,15.66,28.08,10.46c2.08-1.82,6.11-1.69,8.45.13l7,5.46a2,2,0,0,1,.91.91c.91,2.73,1.82,5.46,2.6,8.19.26.91-.26,2-.39,3.12-4.16-1.3-7.41-2.6-10.79-3.38a14.31,14.31,0,0,0-7.67.78c-1.69.65-3.64,1.69-5.46,1.43-2.21-.13-3.25.78-4.16,2.47l-4.81,9c-1.56,3.38-.65,6.24,2.08,8.58s6,4.68,8.84,7.28c5.2,4.42,10.4,9.1,15.47,13.65a12.74,12.74,0,0,1,2.21,3c1.82,3.38,1.43,3.77-1.17,6.89s-5.72,5.33-10,5.85c-.91.13-1.82,1-2.86,1.56-1.3.78-2.6,1.43-4.42,2.47a11.18,11.18,0,0,1-8.45,6.76C13.52,95,12,94.44,11.05,92.62Z"/><path class="cls-2" d="M93.21,106.92c-.52-10.66-.91-21.45-1.43-32.11-.26-5.33-.91-10.66-1.56-15.86-.52-4.29-1.17-4.68-5.46-4.16-1.56.13-3,.39-4.43.65-4.67,1-6.89,3.64-6.89,8.45s.14,9.49-1.3,14.17c-.64,1.69-.91,3.51-3.25,3.64-2.08.26-3.25-1-3.9-2.86-1.56-4.81-4-9.23-3.9-14.56a7.61,7.61,0,0,0-.26-1.69L56.54,42.18c-.52-2.6-1.3-4.94-3.51-6.5a4.58,4.58,0,0,1-1.69-2.6c-.65-2.08.78-3.64,2.86-3,5.07,1.82,10.53,2.73,15.21,6,3.78,2.6,5.46,5.72,4.94,10.14-.26,1.43-.26,2.86-.52,5.07,5.46-.78,10.28-1.43,15.48-2.08a27.36,27.36,0,0,0-.13-4.68c-.65-7.15-1.69-14.43-2.21-21.58-.26-4-1.43-7.15-4.29-9.88-1.31-1.3-3.25-2.47-2-5.85,3.25.91,6.5,1.43,9.36,2.86a73.34,73.34,0,0,1,10,6.5c2.73,2.08,2.6,3.12,1.17,6.11a16.39,16.39,0,0,0-1.56,5.46c-.52,4.68-.65,9.49-.91,14.17-.26,3.12-.65,6.24,1.82,8.84.39.52-.26,2.08-.52,3.12-.26,1.3-1,2.73-1.17,4-.39,12.61-.65,25.22-1,37.83a75.3,75.3,0,0,1-.52,9.36c-.26,2-1,3.9-4,4.16A22.13,22.13,0,0,1,93.21,106.92Z"/><path class="cls-2" d="M113.22,76.5c1.17-6.63.13-12.74-1-19.11C111,51.8,110.75,46,109.71,40.23c-.65-3.25-1.95-6.37-2.73-9.62a6.19,6.19,0,0,1,.13-3.77c.26-.52,2.21-.78,3.12-.39,5.2,2.6,10.27,5.46,13.52,10.4a8.65,8.65,0,0,1,.65,4.55c-.26,5.2-.91,10.4-1.17,15.73-.52,10.27-.65,20.54-1,30.94a26.49,26.49,0,0,1-.65,3C116.47,86.64,112.05,82.74,113.22,76.5Z"/><path class="cls-2" d="M139.87,110.69c0-4.94-.78-9.88-.39-15,.78-9.36-.65-18.72-.52-28.08.13-13.52-.78-27,1.17-40.43.39-3.25,2.21-6.37,3-10l-7.8,3.25a55.85,55.85,0,0,0-6.76,3.64c-1.69,1-3.25,1.17-4.55-.13-2.47-2.73-4.68-5.46-6.89-8.32a6.12,6.12,0,0,1-.52-2.21c.39-.26.65-.65.78-.52,4.29,1.17,8.19-.39,12.09-1.43A102.52,102.52,0,0,1,152,8a22.11,22.11,0,0,0,5.72-1,4.71,4.71,0,0,1,4.68.65c2.34,1.82,4.81,3.51,7.15,5.46a20.33,20.33,0,0,1,2.21,3.25c-1.95,1.3-3.51,2.08-5.46,1.56-4.42-1.17-8.45.78-12.35,2.34A4.66,4.66,0,0,0,152,22.68a40.91,40.91,0,0,0-3,18.72c6.24,0,12.48-.91,17.81,3.77a12.36,12.36,0,0,1-7,2.6c-2.08.39-4.16.52-6.11.91-3.38.52-4.55,1.82-4.68,5.2-.13,2.73,0,5.59,0,8.32,0,10.27,0,20.67-.39,30.94-.26,5.07-1.43,10.14-2.34,15.08a10.65,10.65,0,0,1-2.34,4.29c-.52.65-2.08.78-3,.52A3.3,3.3,0,0,1,139.87,110.69Z"/><path class="cls-2" d="M180.69,89.63c-4.94.26-8.19-2.08-9.36-6.89-1.69-6.5-4-13-4.55-19.63-.39-5.33-1.69-10.53-1.82-16,0-1.56-.78-3.12-1.17-4.68s-.91-3.25-.65-4.81c.52-3.51,3-4.94,5.85-3.51,2.73,1.17,5.46,2.08,8.06,3.38,3.77,1.82,4.68,4.29,4.29,8.45-.78,9-1.56,17.94-2,26.91-.13,2.86-.39,6.11,2.21,9.23a23.65,23.65,0,0,0,3.12-3.25c6.11-8.84,12.35-17.68,15.86-27.95a57.26,57.26,0,0,0,3.25-18.72c-.13-6.5.65-7,1.3-13.39.26-2.86.65-5.59.78-8.32,0-1.56.26-2.73,1.82-3.25,2.34-.78,4.68-1.43,6.76-2.21,1.82,1.82,2.21,3.25,1.95,5.2-.78,7.67-.78,9.23-1.3,16.77-.39,5.85-.91,11.57-1.17,17.42-.13,4.81-.13,9.88.13,14.69.26,4-.13,7.8.39,11.83,1.3,9.88,3.9,14.43,8.19,17.81-3.25,0-7.41,0-11.31-3.77-4.94-4.68-7.54-16-8.32-21.71-1.3,2.47-1.3,2.47-1.82,3.64-1.3,2.86-2.34,6-3.77,8.71a109.89,109.89,0,0,1-6.37,10.66,8.22,8.22,0,0,1-8.32,3.51C182.12,89.76,181.34,89.63,180.69,89.63Z"/><path class="cls-2" d="M238.15,82.35a18.6,18.6,0,0,1-3-9.49c-.39-7.67-1.17-15.34-1.82-23a9.08,9.08,0,0,0-3.64-6.63c-1.95-1.56-3.51-3.64-6-6.11,7.93-.78,14.56-.26,20,5.2a5.59,5.59,0,0,1,1.3,3.25,60.58,60.58,0,0,1,.78,16.77l-1.56,15.86a6.53,6.53,0,0,1-.78,3.12c-.39,1.17-1.17,3-1.56,3A6.62,6.62,0,0,1,238.15,82.35Zm46.68,24.31c1-5.07-1.57-9.62-2.35-14.43-1.43-7.8-2.73-15.6-4.55-23.27-1.43-6.89-.78-13.78-1.43-20.54-.26-2.86.26-5.85-.39-9.1a9.31,9.31,0,0,0-1.43,2c-2.21,4.94-4.55,9.62-9,13.13-2.73,2.08-4,2.34-6.89.26A29.77,29.77,0,0,1,251.41,47c-1.82-2.73-4.81-4.68-7.41-7.15,4.68-2.86,10-2.21,13.26,1.56,2.6,3.12,3.12,3.25,6.11.26,4.29-4.68,8.58-9.23,12.74-14,2.21-2.6,1-5.72.52-8.71a28.57,28.57,0,0,1-.78-4.81c0-2.86,1.17-3.64,3.77-2.6a51,51,0,0,1,8.59,3.77c3.25,1.95,4.41,7.15,2.59,10.53a8.64,8.64,0,0,0-1.17,3c-1.42,7-2.86,13.91-3.76,20.93a88.74,88.74,0,0,0-.79,14.3,231.76,231.76,0,0,0,4,35.49,18.42,18.42,0,0,1,.38,4.55,10.85,10.85,0,0,1-1.55,4c-.27.39-1.57.39-2.21.26C285.34,108.09,284.69,107.18,284.83,106.66Z"/><path class="cls-2" d="M303.54,76.5c1.17-6.63.13-12.74-1-19.11C301.33,51.8,301.07,46,300,40.23c-.65-3.25-1.95-6.37-2.73-9.62a6.19,6.19,0,0,1,.13-3.77c.26-.52,2.21-.78,3.12-.39,5.2,2.6,10.27,5.46,13.52,10.4a8.65,8.65,0,0,1,.65,4.55c-.26,5.2-.91,10.4-1.17,15.73-.52,10.27-.65,20.54-1,30.94a26.49,26.49,0,0,1-.65,3C306.79,86.64,302.37,82.74,303.54,76.5Z"/></g></g></svg>